<svg xmlns="http://www.w3.org/2000/svg" viewBox="0 0 854.85 176.88"><defs><style>.cls-1{fill:none;}.cls-2,.cls-3{fill:#0c419a;}.cls-3{fill-rule:evenodd;}</style></defs><g id="Logo"><rect class="cls-1" x="-72.53" y="-72.55" width="1000.84" height="316"/><path class="cls-2" d="M276.65,124.45v-40h10.53v40.41c0,2.31,1,3,1.9,3a4.35,4.35,0,0,0,1.29-.15l1.26,7.93a13.3,13.3,0,0,1-5.29.9C279.12,136.61,276.65,131.8,276.65,124.45Z"/><path class="cls-2" d="M209.22,111.65c.94-2.93,10.26-23.6,10.26-23.6h11.06v47.68h-10V106.26l-8.32,21.44H205.9l-8.32-21.44v29.47h-10V88.05h11.06s9.32,20.67,10.26,23.6Z"/><path class="cls-2" d="M296,125.66c0-7.64,6.42-11.89,20.47-13.4-.21-3.18-2.22-5.14-6.08-5.14-3,0-5.95,1.28-9.4,3.28l-3.74-7.06a28.57,28.57,0,0,1,15.17-4.78c9.09,0,14.12,5.3,14.12,16.42v20.75h-10v-3.51s-4.13,4.39-9.91,4.39C300.06,136.61,296,131.78,296,125.66Zm20.51-.63v-6.34c-7.49,1-10.43,3.37-10.43,6.12,0,2.34,1.58,3.48,4.08,3.48S314.59,126.93,316.46,125Z"/><path class="cls-2" d="M237.92,125.66c0-7.64,6.41-11.89,20.47-13.4-.22-3.18-2.22-5.14-6.08-5.14-3,0-6,1.28-9.4,3.28l-3.74-7.06a28.51,28.51,0,0,1,15.17-4.78c9.08,0,14.12,5.3,14.12,16.42v20.75h-10v-3.51s-4.13,4.39-9.91,4.39C242,136.61,237.92,131.78,237.92,125.66Zm20.51-.63v-6.34c-7.49,1-10.43,3.37-10.43,6.12,0,2.34,1.57,3.48,4.08,3.48S256.56,126.93,258.43,125Z"/><path class="cls-2" d="M356.26,84.48V102a11.3,11.3,0,0,0-8.71-3.47c-7.48,0-14.74,7.17-14.74,19s5.71,19,14.54,19c4.84,0,8.57-3.61,8.91-4v3.07h10.53V84.48Zm-6.17,43.33c-4.08,0-6.49-3.21-6.49-10.33,0-6.91,3-10.12,6.4-10.12a10.13,10.13,0,0,1,6.26,2.29v14.91C354.14,126.94,352.33,127.81,350.09,127.81Z"/><path class="cls-2" d="M374.86,88.51c0-3.3,2.56-5.62,6.09-5.62s6.1,2.32,6.1,5.62-2.56,5.62-6.1,5.62S374.86,91.78,374.86,88.51Zm.83,10.93h10.53v36.29H375.69Z"/><path class="cls-2" d="M392.75,117.6c0-11.78,7.42-19,16.34-19,10.12,0,15.7,7.51,15.7,17.42a24.93,24.93,0,0,1-.44,4.75H403.09c1,5.27,4.48,7.68,9.22,7.68,2.69,0,5-1.07,7.6-2.61l3.56,6.72a22.81,22.81,0,0,1-12.6,4.09C400.36,136.61,392.75,129.61,392.75,117.6Zm23-4c0-4-2.26-6.86-6.47-6.86-3.32,0-5.63,2.27-6.34,6.86Z"/><path class="cls-2" d="M187.62,64.44v-40h10.53V64.87c0,2.31,1,3,1.9,3a4.65,4.65,0,0,0,1.29-.14l1.26,7.93a13.5,13.5,0,0,1-5.28.89C190.09,76.59,187.62,71.78,187.62,64.44Z"/><path class="cls-2" d="M243.48,64.36l2.89,11.35h10.88L242.59,28H230.53L215.87,75.71h10.89l2.88-11.35ZM231.77,56l4.6-18.09h.38L241.35,56Z"/><path class="cls-2" d="M259.37,71.52l4.73-6.7c3.22,2.49,6.2,3.82,9.17,3.82,3.13,0,4.49-1.23,4.49-3.13,0-2.39-3.52-3.47-7.18-4.94-4.35-1.72-9.4-4.67-9.4-10.67,0-6.75,5.38-11.36,13.57-11.36a20,20,0,0,1,12.53,4.6l-4.72,6.45c-2.52-1.87-5-3.09-7.48-3.09-2.72,0-4.06,1.08-4.06,2.89,0,2.32,3.33,3.21,7,4.57,4.5,1.7,9.57,4.29,9.57,10.93s-5.07,11.7-14.59,11.7A22.71,22.71,0,0,1,259.37,71.52Z"/><path class="cls-2" d="M290.88,71.52l4.74-6.7c3.21,2.49,6.19,3.82,9.16,3.82,3.14,0,4.49-1.23,4.49-3.13,0-2.39-3.52-3.47-7.18-4.94-4.35-1.72-9.4-4.67-9.4-10.67,0-6.75,5.38-11.36,13.58-11.36a20,20,0,0,1,12.52,4.6l-4.71,6.45c-2.53-1.87-5-3.09-7.48-3.09-2.72,0-4.06,1.08-4.06,2.89,0,2.32,3.32,3.21,7,4.57,4.49,1.7,9.57,4.29,9.57,10.93s-5.08,11.7-14.6,11.7A22.74,22.74,0,0,1,290.88,71.52Z"/><path class="cls-2" d="M365.39,39.45h10.53v5.16c2-4,6.88-5.43,9.36-5.37a10.16,10.16,0,0,1,4.23.73l-1.09,9.78a15.7,15.7,0,0,0-4.49-1.09,8.53,8.53,0,0,0-8,8.17V75.71H365.39Z"/><path class="cls-2" d="M430.15,39.45h10.53V44h0c3-2.93,6-5.47,10.86-5.47,7.73,0,11,5.57,11,14.64V75.71H452V54.56c0-5.22-1.38-6.86-4.42-6.86-2.64,0-4.63,1.26-6.94,3.53V75.71H430.15Z"/><path class="cls-2" d="M499,57.58c0-11.77,7.42-19,16.34-19,10.12,0,15.7,7.52,15.7,17.42a24.84,24.84,0,0,1-.44,4.75H509.35c.95,5.27,4.48,7.68,9.22,7.68,2.69,0,5-1.07,7.6-2.61l3.56,6.72a22.73,22.73,0,0,1-12.6,4.09C506.62,76.59,499,69.59,499,57.58Zm23-4c0-4-2.26-6.86-6.47-6.86-3.32,0-5.63,2.28-6.35,6.86Z"/><path class="cls-2" d="M391.79,65.65c0-7.65,6.41-11.9,20.47-13.41-.22-3.18-2.22-5.14-6.08-5.14-3,0-6,1.28-9.4,3.28L393,43.32a28.51,28.51,0,0,1,15.17-4.78c9.08,0,14.12,5.3,14.12,16.42V75.71h-10v-3.5s-4.13,4.38-9.91,4.38C395.9,76.59,391.79,71.76,391.79,65.65ZM412.3,65V58.67c-7.49,1-10.43,3.38-10.43,6.12,0,2.34,1.57,3.48,4.08,3.48S410.43,66.91,412.3,65Z"/><path class="cls-2" d="M212,24.25c-2.18,0-5.15,1.66-5.15,4.74a4.28,4.28,0,0,0,4.32,4.34,2.91,2.91,0,0,0,.31,0c-.11,3.16-3,5-4.45,5.75l2.78,3.88C219,40,220.91,24.31,212,24.25Z"/><path class="cls-2" d="M346.2,39.45v24c-2.06,2.86-3.67,4-6.32,4-3,0-4.41-1.64-4.41-6.86V39.45H324.94V62.3c0,8.59,3.67,14.34,11.16,14.32A13.12,13.12,0,0,0,346.28,72v3.74h10.44V39.45Z"/><path class="cls-2" d="M487,67.91c-4.57,0-8-4-8-10.33s3.25-10.36,8.31-10.36a6.91,6.91,0,0,1,4.6,2l5-6.91a15.18,15.18,0,0,0-10.16-3.73c-9.81,0-18.37,7-18.37,19s7.51,19,17.43,19a17.49,17.49,0,0,0,11.71-4.32L493.64,65C491.53,66.72,489.41,67.91,487,67.91Z"/><path class="cls-2" d="M191.12,153h3.73l5.85,17.94h-3.37l-2.73-9.55c-.57-1.9-1.1-3.94-1.62-5.91h-.11c-.5,2-1,4-1.59,5.91l-2.76,9.55h-3.25Zm-2.39,10.58h8.45v2.5h-8.45Z"/><path class="cls-2" d="M202.6,173.37a3.44,3.44,0,0,1,1.94-2.88v-.11a2.56,2.56,0,0,1-1.22-2.25,3.26,3.26,0,0,1,1.49-2.51v-.11A4.5,4.5,0,0,1,203,162c0-3.09,2.51-4.84,5.33-4.84a6.18,6.18,0,0,1,2,.33h4.82v2.35h-2.46a3.55,3.55,0,0,1,.77,2.26c0,3-2.27,4.6-5.12,4.6a5,5,0,0,1-1.82-.36,1.55,1.55,0,0,0-.66,1.29c0,.76.55,1.22,2.18,1.22h2.4c3.22,0,4.93,1,4.93,3.33,0,2.65-2.79,4.75-7.19,4.75C205,176.88,202.6,175.72,202.6,173.37Zm9.74-.73c0-1-.83-1.35-2.38-1.35h-1.84a7,7,0,0,1-1.83-.19,2.26,2.26,0,0,0-1,1.78c0,1.23,1.32,1.94,3.44,1.94S212.34,173.8,212.34,172.64ZM210.69,162a2.35,2.35,0,1,0-4.67,0,2.36,2.36,0,1,0,4.67,0Z"/><path class="cls-2" d="M218.41,153.3a2,2,0,1,1,2,1.78A1.8,1.8,0,0,1,218.41,153.3Zm.36,4.14h3.16v13.48h-3.16Z"/><path class="cls-2" d="M226.89,157.44h2.59l.24,2.41h.09a4.59,4.59,0,0,1,3.83-2.74,3.35,3.35,0,0,1,1.52.28l-.55,2.74a4.59,4.59,0,0,0-1.38-.22c-1.07,0-2.37.74-3.18,2.79v8.22h-3.16Z"/><path class="cls-2" d="M243.58,164.19c0-4.38,3-7.08,6.21-7.08,3.65,0,5.57,2.64,5.57,6.4a8.26,8.26,0,0,1-.14,1.54h-8.55a3.83,3.83,0,0,0,4,3.75,5.73,5.73,0,0,0,3.13-1l1.07,2a8.33,8.33,0,0,1-4.62,1.46C246.5,171.25,243.58,168.64,243.58,164.19Zm9-1.29c0-2.08-.93-3.34-2.77-3.34-1.57,0-3,1.18-3.23,3.34Z"/><path class="cls-2" d="M259.31,157.44h2.59l.24,1.83h.09a6.29,6.29,0,0,1,4.42-2.16c2.89,0,4.15,2,4.15,5.36v8.45h-3.16v-8c0-2.22-.64-3.06-2.1-3.06-1.18,0-2,.59-3.07,1.68v9.42h-3.16Z"/><path class="cls-2" d="M274.27,169.37l1.47-2a5.89,5.89,0,0,0,3.72,1.51c1.47,0,2.16-.69,2.16-1.62,0-1.13-1.46-1.63-2.9-2.18-1.77-.66-3.78-1.68-3.78-3.93s1.88-4,4.9-4a7.27,7.27,0,0,1,4.48,1.62l-1.45,1.94a5,5,0,0,0-2.95-1.17c-1.36,0-2,.64-2,1.49,0,1.06,1.36,1.47,2.82,2,1.82.68,3.86,1.55,3.86,4.07,0,2.31-1.83,4.18-5.23,4.18A8.37,8.37,0,0,1,274.27,169.37Z"/><path class="cls-2" d="M287.47,164.19c0-4.38,3-7.08,6.21-7.08,3.64,0,5.56,2.64,5.56,6.4a8.4,8.4,0,0,1-.13,1.54h-8.56a3.84,3.84,0,0,0,4,3.75,5.67,5.67,0,0,0,3.12-1l1.08,2a8.36,8.36,0,0,1-4.62,1.46C290.39,171.25,287.47,168.64,287.47,164.19Zm9-1.29c0-2.08-.92-3.34-2.76-3.34-1.57,0-2.95,1.18-3.23,3.34Z"/><path class="cls-2" d="M303.2,157.44h2.59l.24,1.84h.09a5.79,5.79,0,0,1,4.13-2.17,3.63,3.63,0,0,1,3.72,2.42c1.29-1.37,2.63-2.42,4.34-2.42,2.84,0,4.16,2,4.16,5.36v8.45h-3.16v-8c0-2.22-.66-3.06-2.08-3.06a4.19,4.19,0,0,0-2.82,1.68v9.42h-3.16v-8c0-2.22-.66-3.06-2.07-3.06a4.19,4.19,0,0,0-2.82,1.68v9.42H303.2Z"/><path class="cls-2" d="M330.11,169.5H330l-.27,1.42h-2.49V151.54h3.16v5l-.09,2.24a6.13,6.13,0,0,1,3.89-1.68c3.37,0,5.31,2.7,5.31,6.85,0,4.62-2.75,7.29-5.75,7.29A5.42,5.42,0,0,1,330.11,169.5Zm6.18-5.49c0-2.69-.88-4.28-2.93-4.28a4.21,4.21,0,0,0-2.94,1.51v6.28a4.16,4.16,0,0,0,2.69,1.12C334.91,168.64,336.29,167.06,336.29,164Z"/><path class="cls-2" d="M343.47,167.45V151.54h3.16v16.08c0,.77.35,1,.68,1a1.68,1.68,0,0,0,.49-.06l.4,2.36a4.31,4.31,0,0,1-1.67.28C344.29,171.25,343.47,169.8,343.47,167.45Z"/><path class="cls-2" d="M350.94,164.19c0-4.38,3-7.08,6.21-7.08,3.65,0,5.57,2.64,5.57,6.4a8.26,8.26,0,0,1-.14,1.54H354a3.83,3.83,0,0,0,4,3.75,5.73,5.73,0,0,0,3.13-1l1.07,2a8.33,8.33,0,0,1-4.62,1.46C353.86,171.25,350.94,168.64,350.94,164.19Zm9-1.29c0-2.08-.92-3.34-2.76-3.34-1.57,0-3,1.18-3.23,3.34Z"/><path class="cls-2" d="M368.55,167a2,2,0,0,0-2.11,1.94,1.92,1.92,0,0,0,2,1.94l.24,0c0,1.44-1,2.67-2.77,3.35l.69,1.74a5.86,5.86,0,0,0,4.27-5.7C370.91,168.19,370.05,167,368.55,167Z"/><path class="cls-2" d="M381.85,157.44h2.59l.24,1.44h.09a6.49,6.49,0,0,1,4.06-1.77c3.37,0,5.3,2.7,5.3,6.86,0,4.61-2.76,7.28-5.75,7.28a5.4,5.4,0,0,1-3.47-1.48L385,172v4.25h-3.16Zm9,6.57c0-2.69-.88-4.28-2.93-4.28a4.25,4.25,0,0,0-2.94,1.51v6.28a4.21,4.21,0,0,0,2.7,1.12C389.51,168.64,390.88,167.06,390.88,164Z"/><path class="cls-2" d="M398.14,157.44h2.59l.24,2.41h.09a4.6,4.6,0,0,1,3.83-2.74,3.35,3.35,0,0,1,1.52.28l-.55,2.74a4.59,4.59,0,0,0-1.38-.22c-1.07,0-2.37.74-3.18,2.79v8.22h-3.16Z"/><path class="cls-2" d="M407.63,164.19c0-4.49,3.05-7.08,6.41-7.08s6.41,2.59,6.41,7.08-3.05,7.06-6.41,7.06S407.63,168.66,407.63,164.19Zm9.57,0c0-2.7-1.19-4.5-3.16-4.5s-3.16,1.8-3.16,4.5,1.18,4.48,3.16,4.48S417.2,166.89,417.2,164.19Z"/><path class="cls-2" d="M424.49,166.38V160h-1.92v-2.37l2.09-.15.37-3.67h2.62v3.67h3.44V160h-3.44v6.41c0,1.59.62,2.36,1.91,2.36a4.38,4.38,0,0,0,1.41-.3l.53,2.32a8.44,8.44,0,0,1-2.75.5C425.64,171.25,424.49,169.28,424.49,166.38Z"/><path class="cls-2" d="M433.53,164.19c0-4.38,3-7.08,6.21-7.08,3.64,0,5.56,2.64,5.56,6.4a7.48,7.48,0,0,1-.14,1.54h-8.55a3.83,3.83,0,0,0,4,3.75,5.7,5.7,0,0,0,3.13-1l1.08,2a8.36,8.36,0,0,1-4.62,1.46C436.45,171.25,433.53,168.64,433.53,164.19Zm9-1.29c0-2.08-.92-3.34-2.77-3.34-1.56,0-2.95,1.18-3.22,3.34Zm-4.46-9.25,4.05-4.79,2.18,2.1-4.65,4.25Z"/><path class="cls-2" d="M448.17,173.37a3.45,3.45,0,0,1,1.95-2.88v-.11a2.54,2.54,0,0,1-1.22-2.25,3.26,3.26,0,0,1,1.49-2.51v-.11a4.5,4.5,0,0,1-1.78-3.56c0-3.09,2.5-4.84,5.32-4.84a6.24,6.24,0,0,1,2,.33h4.82v2.35h-2.46a3.55,3.55,0,0,1,.77,2.26c0,3-2.27,4.6-5.13,4.6a5.08,5.08,0,0,1-1.82-.36,1.58,1.58,0,0,0-.66,1.29c0,.76.55,1.22,2.19,1.22H456c3.22,0,4.93,1,4.93,3.33,0,2.65-2.79,4.75-7.19,4.75C450.57,176.88,448.17,175.72,448.17,173.37Zm9.75-.73c0-1-.84-1.35-2.38-1.35h-1.85a7,7,0,0,1-1.82-.19,2.26,2.26,0,0,0-1,1.78c0,1.23,1.32,1.94,3.43,1.94S457.92,173.8,457.92,172.64ZM456.27,162a2.35,2.35,0,1,0-4.67,0,2.36,2.36,0,1,0,4.67,0Z"/><path class="cls-2" d="M462.85,164.19c0-4.38,3-7.08,6.21-7.08,3.64,0,5.56,2.64,5.56,6.4a8.4,8.4,0,0,1-.13,1.54h-8.56a3.84,3.84,0,0,0,4,3.75,5.67,5.67,0,0,0,3.12-1l1.08,2a8.33,8.33,0,0,1-4.62,1.46C465.77,171.25,462.85,168.64,462.85,164.19Zm9-1.29c0-2.08-.92-3.34-2.76-3.34-1.57,0-2.95,1.18-3.23,3.34Z"/><path class="cls-2" d="M478.58,157.44h2.59l.24,2.41h.09a4.6,4.6,0,0,1,3.83-2.74,3.35,3.35,0,0,1,1.52.28l-.55,2.74a4.59,4.59,0,0,0-1.38-.22c-1.07,0-2.37.74-3.18,2.79v8.22h-3.16Z"/><path class="cls-2" d="M495.27,164.19a6.66,6.66,0,0,1,6.76-7.08,5.76,5.76,0,0,1,3.94,1.52l-1.54,2.05a3.31,3.31,0,0,0-2.23-1c-2.18,0-3.68,1.8-3.68,4.5s1.48,4.48,3.58,4.48a4.44,4.44,0,0,0,2.78-1.16l1.29,2.08a6.64,6.64,0,0,1-4.4,1.66C498.09,171.25,495.27,168.66,495.27,164.19Z"/><path class="cls-2" d="M509.65,151.54h3.16v5l-.13,2.61a6.21,6.21,0,0,1,4.31-2c2.89,0,4.15,2,4.15,5.36v8.45H518v-8c0-2.22-.63-3.06-2.09-3.06-1.19,0-2,.59-3.08,1.68v9.42h-3.16Z"/><path class="cls-2" d="M524.94,167.3c0-2.89,2.39-4.39,7.92-5,0-1.45-.62-2.66-2.44-2.66a7.42,7.42,0,0,0-3.79,1.33l-1.16-2.11a10.52,10.52,0,0,1,5.53-1.77c3.37,0,5,2.08,5,5.83v8h-2.59l-.24-1.49h-.09a6.48,6.48,0,0,1-4.18,1.82A3.78,3.78,0,0,1,524.94,167.3Zm7.92,0v-3c-3.65.46-4.87,1.42-4.87,2.78,0,1.19.81,1.71,1.94,1.71A4.26,4.26,0,0,0,532.86,167.31Z"/><path class="cls-2" d="M539.75,164.19a6.66,6.66,0,0,1,6.76-7.08,5.76,5.76,0,0,1,3.94,1.52l-1.54,2.05a3.32,3.32,0,0,0-2.24-1c-2.17,0-3.67,1.8-3.67,4.5s1.48,4.48,3.57,4.48a4.46,4.46,0,0,0,2.79-1.16l1.28,2.08a6.63,6.63,0,0,1-4.39,1.66C542.57,171.25,539.75,168.66,539.75,164.19Z"/><path class="cls-2" d="M554,165.89v-8.45h3.16v8.05c0,2.21.63,3,2.09,3,1.19,0,2-.55,3-1.87v-9.23h3.16v13.48h-2.59l-.24-2h-.09a5.48,5.48,0,0,1-4.34,2.32C555.24,171.25,554,169.29,554,165.89Z"/><path class="cls-2" d="M570.09,157.44h2.59l.24,1.83H573a6.25,6.25,0,0,1,4.42-2.16c2.88,0,4.15,2,4.15,5.36v8.45h-3.16v-8c0-2.22-.64-3.06-2.1-3.06-1.18,0-2,.59-3.07,1.68v9.42h-3.16Z"/><path class="cls-2" d="M9.14,89.11,7.9,88a3.23,3.23,0,0,0,1-2c0-.78-.26-1.18-.75-1.2s-.71.44-1,1.15L6.56,87a2.43,2.43,0,0,1-2.34,1.57,2.7,2.7,0,0,1-2.34-3.08A3.84,3.84,0,0,1,3.1,82.85l1.14,1a2.7,2.7,0,0,0-.74,1.7c0,.65.22,1.07.7,1.09s.72-.51,1-1.22l.48-1a2.29,2.29,0,0,1,2.34-1.54c1.38.06,2.52,1.27,2.43,3.25A4.59,4.59,0,0,1,9.14,89.11Z"/><path class="cls-2" d="M1.44,77.25,0,74.83,1.34,74,2.5,76.57Zm1,1.91L3.25,74l1.56.23-.5,3.29L6,77.78,6.38,75l1.56.24L7.53,78l1.89.28.51-3.42,1.56.23-.79,5.28Z"/><path class="cls-2" d="M7.77,71.89C5.09,71.21,4,69,4.51,67a3.55,3.55,0,0,1,1.67-2.16l.92,1.26a2.1,2.1,0,0,0-1,1.26c-.28,1.1.47,2.23,2.08,2.64s2.82-.1,3.12-1.28A2.18,2.18,0,0,0,11,67l1.39-.67a3.45,3.45,0,0,1,.52,2.91C12.34,71.24,10.48,72.59,7.77,71.89Z"/><path class="cls-2" d="M10.4,63.1,6.23,61.52l.66-1.76,4.36,1.65c1.52.58,2.23.3,2.56-.57s0-1.58-1.53-2.16L7.93,57l.64-1.7,4.18,1.59c2.61,1,3.34,2.48,2.58,4.49S13,64.09,10.4,63.1Z"/><path class="cls-2" d="M10.22,51.34l1.38-2.66c.82-1.56,2-2.57,3.78-1.65s1.76,2.54.95,4.11l-.52,1,2.66,1.38-.87,1.67Zm4.71-.75c.46-.88.33-1.55-.4-1.93s-1.22,0-1.67.85l-.45.85,2.08,1.08Zm.8.62-.47-1.7,5.39-.2-1,1.87Z"/><path class="cls-2" d="M15.11,42.32l1-1.58,7,4.51-1,1.58Z"/><path class="cls-2" d="M20.36,37.33,19,39.15l-1.25-1,3.91-5.14,1.26,1L21.5,35.83l5.36,4.09-1.14,1.49Z"/><path class="cls-2" d="M23.66,30.6l3.55-3.81,1.16,1.07L26.1,30.3l1.22,1.14,1.93-2.08,1.16,1.08-1.94,2.08,1.41,1.3,2.35-2.53,1.16,1.08-3.64,3.91Zm.23-2.16.18-2.81,1.56.1-.49,2.74Z"/><path class="cls-2" d="M37.62,26.84l.07-1.68a3.32,3.32,0,0,0,2.14-.57c.63-.48.74-1,.44-1.35s-.8-.25-1.56,0l-1.13.3a2.44,2.44,0,0,1-2.72-.76A2.71,2.71,0,0,1,35.68,19a3.86,3.86,0,0,1,2.79-.77l0,1.51a2.7,2.7,0,0,0-1.76.55c-.51.39-.67.86-.38,1.24s.85.21,1.6,0l1.1-.31a2.28,2.28,0,0,1,2.69.78c.85,1.09.67,2.74-.89,3.95A4.56,4.56,0,0,1,37.62,26.84Z"/><path class="cls-2" d="M42.8,18.85c-1.41-2.33-.9-4.46,1-5.62s4-.6,5.45,1.71.93,4.52-1,5.68S44.2,21.18,42.8,18.85Zm4.82-2.91c-.86-1.43-2-1.9-3-1.32s-1.08,1.8-.21,3.23,2,2,3,1.38S48.48,17.37,47.62,15.94Z"/><path class="cls-2" d="M51.7,13.65c-1.17-2.5-.19-4.72,1.72-5.61A3.49,3.49,0,0,1,56.14,8l-.39,1.51a2,2,0,0,0-1.61,0c-1,.48-1.43,1.77-.72,3.28s1.86,2.12,3,1.6A2.17,2.17,0,0,0,57.53,13l1.4.65A3.44,3.44,0,0,1,57,15.88C55.09,16.77,52.88,16.19,51.7,13.65Z"/><path class="cls-2" d="M59.05,5.82l1.77-.65L63.69,13l-1.77.65Z"/><path class="cls-2" d="M66.54,3.34l2.18-.58,4.65,7.37-1.92.51L69.32,6.85c-.44-.74-.91-1.64-1.34-2.42h0c0,.91.06,1.9,0,2.77l0,4.35-1.86.49Zm.39,4.94,3.87-1,.37,1.41-3.87,1Z"/><path class="cls-2" d="M74.38,1.45l1.86-.29,1,6.67,3.24-.49.24,1.56-5.11.77Z"/><path class="cls-2" d="M82.48.33,87.68,0l.1,1.57-3.32.22.11,1.66,2.83-.18.1,1.58L84.67,5l.12,1.91,3.45-.22.1,1.58L83,8.64Z"/><path class="cls-2" d="M96.1,24.73a1.9,1.9,0,0,0-1.41-.81l-.93-.09c-.65-.18-14.63.05-17.91,2.16l0,0c-.35-2.22-1.11-4.9-4.94-5.72-2.7-.57-8.52,2-6.57,7.81a3.87,3.87,0,0,0,2,2.19c.5.26,1.29.14,1.88,1.66.17.45.5.4.79.31s.27-.05.62.24a.45.45,0,0,0,.5.09.44.44,0,0,0,.32.12c.14,0,.46-.1.54,0,1.11.89,2.4-.51,2.89-1.39l1.79,5.43c-.43-.37-4.83-1.64-6.94.72-1.84,2-3.18,4.79-4.73,9.52a3.82,3.82,0,0,1-2.71,2.47c-2.4.88-1,2-.39,2.11a15.65,15.65,0,0,0,5.61-.22c.89-.44.23-2.49,1.22-3.76l2.19-2.83A9.33,9.33,0,0,1,69.14,49c-.72,1.76-2.91,2.69-3.56,3.53-1.15,1.48,1.49,1.6,2.19,1.36,1.75-.6,3-.57,3.73-1,1-.58.29-2.15.62-2.79.9-1.78,4-5.67,4.35-6.29a2.05,2.05,0,0,0,.13-.25,17.08,17.08,0,0,0,5.63.77c5.11-.61,6.25-4.22,5.73-7a11.86,11.86,0,0,0-2.59-5C84,30.15,83.24,29,82.79,28.42c1.47-.35,9.6-2.59,9.63-2.52.31.66,1,.81,1.24,1,.53.29.83-.16.62-.29a1.23,1.23,0,0,1-.5-.55,10.61,10.61,0,0,1,1.77.13C96.12,26.27,96.5,25,96.1,24.73Z"/><path class="cls-3" d="M168.41,73.77c-1.31-7-7.85-11.35-11.22-12.78a24.08,24.08,0,0,0-3.69-1.28l-1.12-.37h0c.24-1.52,2-1.64,3.06-3.81,3-6.16-3.16-10.5-7.72-9.5-2.15.48-3.65,1.25-4,2.89-.18.89-.87.92-2,2.1-.36.38.44,1,.57,1.26,0,.07-.2.4-.28.77s0,.31,0,.36a1.77,1.77,0,0,0-.22.87,2.34,2.34,0,0,0,0,2.11s0,0,0,0a6.44,6.44,0,0,1,.93,2.32c0,.19,0,.29-.84,0-.21-.06-8.46-2.49-9.38-3.11s-9.2-9.56-10.1-11.3c-.49-1-1-1.59-1.27-1.57-1.93.12,1.4,3.6-.47,2.41-.48-.31-1.92-1.32-2-1.4-.36-.29-.27-.15-.53-.57a2.64,2.64,0,0,0-.63-.82c-.21-.15-.34-.19-.49-.15s-.25.29-.32.31a1.53,1.53,0,0,0-.33,0c-.48.12-.12,1.35,0,1.92a22.65,22.65,0,0,0,1.74,3.74c2.09,1.44,4.15,2.65,4.22,2.73,2.25,2.61,4.89,5.88,7.25,8.36,1.88,2,10.46,7,10.75,7.13.56.34,1.45,2.17.17,15.27-.48,4.93-4,15.41-2.33,20.83A64.73,64.73,0,0,1,141.78,118c.28,2.15-1.39,3.45-3.78,5.18-.93.68-3.55,2.3-3.82,2.54-.44.4,0,1,.54,1.28a15.22,15.22,0,0,0,2.21.93,6.22,6.22,0,0,0,4.06-.79c1.74-1,1.9-1.14,2.92-1.76,1.18-.71,2.6-.94,3-2.14.49-1.6-.86-3.89-.72-4.93,1-7.5,2.27-11.21.38-15.81-.38-.92,2.74-10.94,3-9.59.48,2.64.67,10.49.76,16.33,0,2.55,2.09,11.61,2.75,14.86,1,5-7.45,9-5.59,10.5a6.17,6.17,0,0,0,2.52,1,4.56,4.56,0,0,0,4.79-1.89c1.8-2.24,1.25-1.62,2.67-3.22,1.23-1.38.35-3.76.19-5-.32-2.55-.05-3.22-.07-7.8a43.2,43.2,0,0,1,.61-8.78c1.33-8.78,2.15-13.55,2.56-17.28l0-.21s.64.23.92-.23a5.09,5.09,0,0,0,.51-2c.11-.49.31.14.31.14a7.28,7.28,0,0,1,.43,1.59,8.87,8.87,0,0,1-.7,2.16c-.34,1,.52,1.14.74,1.22a9.56,9.56,0,0,0,3.19-2.53,6.12,6.12,0,0,0,.36-2.29,34.32,34.32,0,0,0-.72-5C166.6,81.89,168.73,75.52,168.41,73.77Zm-6,10.12c-.28,1.25-.36.06-1.54,4.69l.13-.66c0-.65,0-1.3,0-2,0-5.74-4.39-18-1.73-15.39,0,0,3.2,2.23,3.82,3.93C163.61,75.81,163.43,79.48,162.41,83.89Z"/><path class="cls-2" d="M55.43,97.59c-1-.86-4.45-5.59-6.71-7.45a32.14,32.14,0,0,1-3.11-4c-4.09-5.45-5-5.76-7.84-6.24-.58-.39-.39-.84-.33-.86a3.57,3.57,0,0,0,2.45-4.75c-.17-.71.31-1,.3-1.68a7.51,7.51,0,0,0-.54-2.69A2,2,0,0,0,39.32,68c-2-2.52-7-2.64-9.57-.85-2.08,1.44-.86,2.44-1.51,4.48a3.15,3.15,0,0,0,.85,3.21c.1.68,2.15,2,1.75,3.44S28,80.08,28.06,80.08a2.92,2.92,0,0,0-.74.28c-3.82,2.18-7.52,5.35-8,8.84.21,2.81,4.56,6.86,7.36,9,.41,4.79,3.45,12.12,3.59,12.41.41.88-.86-.66-3.92-1.7-1.49-.5-3.45-2.53-3.87-.15-.18,1,.25,2.72-.69,4.86-.71,1.63.12,4.24,1.92,4.19,1.3,0,2.07-4,2.07-4s6.29,3.13,9.29,2.09c1.75-.61,2.15-7.62.42-13.87-.61-2.19,1.13,3.57,5.33,8.64.93,1.12.11,2,.72,6.17a11.91,11.91,0,0,1,.21,2.69c-.12,2-2.05,4.41,2.36,5.54s4.13,2.21,6.95.32c1.26-.85-3.88-1.37-4.88-4.41a4,4,0,0,1-.12-.66c-.12-2.4,1-8,.64-9.88-1.6-9.5-5.59-13.89-6.1-16.11,0-6.63-.48-8.71.15-7.22a33.48,33.48,0,0,0,2.89,4.39h0c.15.19.33.39.52.6a7.21,7.21,0,0,0,1.2,1.14c2.77,2.42,7.18,5.31,7.77,5.94,0,0,.33,2.92,1.53,2.71s6.37-2.51,6.27-3.09C60.72,97.72,55.61,97.75,55.43,97.59ZM26.65,93.91c-.8-1.54-3-4.4-2.84-4.87,1.22-2,2.53-2.58,2.92-2.45S26.65,93.91,26.65,93.91Z"/><path class="cls-2" d="M143.1,151.33c-.23-.12-3.34-1.27-6.09-5.67-1.23-2-10.47-19.09-11.73-22.43-2.5-6.61-22-18.5-22.82-19.19-.58-.47-.51-1.62-.29-2.37,1.64-5.56,1-10.54,1.31-11.29.8-1.89,2-4.64,1.11-6.43l-2-3.18S112.9,84.5,115.29,84c2.06-.44,12.44-7.57,13-7.88,1.44-.73,4.89.35,8.38-3.45,1.31-1.43.36-1.92.12-1.67a.89.89,0,0,0-1.2-.32c-.83.47-3.7,1.3-3.17.91,2.08-1.56.64-2,.64-2-.91.75-5.05,1.8-5.85,2.46-1,.77-1.57,1.43-2,1.7A44.19,44.19,0,0,1,114,78.16c-.88.2-9.11-5.18-13.87-5.91a9.4,9.4,0,0,0-4.88.19c-1.7.48-1.57-2-.31-2.57.66-.31,1.76-.51,2.17-1.35a2.61,2.61,0,0,0-.08-2.07.71.71,0,0,0-.07-.58c-.12-.29-.1-.14-.06-.43s-.13-.38-.2-.62a.89.89,0,0,1,.07-.55c1-.84.57-1.23.44-1.35C97,62.66,95.46,62,95.33,61a11.75,11.75,0,0,0-1-3.19c-.1-.3-.27-2.16-1.09-2.91-1-.91-3.11-2-7.66-.8-1.46.4-1.19,1.1-4.85,1.78-4.37.81-6.78,7.31-6.39,10,.32,2.18,2.19,1.12,2.11,2.09-.12,1.51-.28,4,2.92,4.93.69.2,4.88-.47,6.47-.19,0,0,1.3.11.65,1.41-.32.64-4.52,2.3-5.55,2.74C78.18,78,71.13,89.57,69,90.66a24.35,24.35,0,0,0-3.56,2.09c-2.9,1.82-5.73,4-7.29,4-2.08-.13-3.77.87-5.16,4-.41.92-.17,1.39.58,1.58a1.77,1.77,0,0,0,1.29.66c.62.58,1.32.21,1.85-.07,1.63-.89,2-1.59,2.64-1.85,1.59-.52,11-4.15,13.09-5.77,3.18-1.74,9.58-8.31,11-8.38C84.74,86.8,88,89.68,87,95.22c-.35,1.89-2.71,5.3-4,7.29-2.6,3.94-.59,7.38-1.1,8.21-2.69,4.39-6,10.26-11.58,15.28-2.17,1.41-6.75,1.73-9.17,2.44-5.56,1.63-11.48,5.62-15.71,8-1.4.78-2.74-.9-4.5-1.1s-1.91,2.46-2.81,4.87c-.28.74-.4,1.09-1.74,4.06-.53,1.16-1.92,4.74-.52,6.22,1.28,1.78,4.32-3.8,6.67-6.52,1.25-1.44,2-1.91,4.71-2.53,1.72-.4,15.35-4.1,24.35-6.07.22,0,.46-.09.72-.16,11.69-3,23.81-18.3,24-18.23l19.85,9.84c2,1.08,2,4.95,4.39,9.35,1.42,2.66,3.51,5,12,13.31,1.09,1.07.19,2.84.69,4.49s1.36,1.8,2.95,1.67,2.81-.36,4.29-.46c1.89-.11,1.38.09,3.59.42,1.07.16,3.52.51,5.25-1.21C152.4,151.29,146,152.85,143.1,151.33Z"/><path class="cls-2" d="M121.55,142.72a1.19,1.19,0,0,0-1.62-.53v0a61,61,0,0,1-58-1.49,1.21,1.21,0,1,0-1.21,2.09,63.45,63.45,0,0,0,60.28,1.56A1.2,1.2,0,0,0,121.55,142.72Z"/><path class="cls-2" d="M35.7,63.29a1.33,1.33,0,0,1-.5-.11,1.21,1.21,0,0,1-.6-1.6A63.17,63.17,0,0,1,60.41,33a1.21,1.21,0,1,1,1.22,2.08,60.81,60.81,0,0,0-24.82,27.5A1.24,1.24,0,0,1,35.7,63.29Z"/><path class="cls-2" d="M139,47.8a1.19,1.19,0,0,1-.9-.41,61,61,0,0,0-37.14-20,1.21,1.21,0,1,1,.34-2.4,63.39,63.39,0,0,1,38.61,20.8,1.21,1.21,0,0,1-.91,2Z"/><path class="cls-2" d="M618.86,135.6a1.14,1.14,0,0,1-1.21-1V38.62a1.21,1.21,0,0,1,2.41,0v95.93A1.13,1.13,0,0,1,618.86,135.6Z"/><path class="cls-2" d="M635.93,103.34c0-7.64,6.41-11.89,20.47-13.41-.21-3.17-2.22-5.14-6.08-5.14-3,0-6,1.29-9.4,3.28L637.18,81a28.64,28.64,0,0,1,15.17-4.77c9.09,0,14.12,5.3,14.12,16.42v20.75h-10V109.9s-4.13,4.39-9.91,4.39C640,114.29,635.93,109.46,635.93,103.34Zm20.51-.63V96.37C649,97.4,646,99.74,646,102.49c0,2.34,1.58,3.48,4.08,3.48S654.57,104.61,656.44,102.71Z"/><path class="cls-2" d="M792.22,65.91c0-3.3,2.56-5.62,6.1-5.62s6.09,2.32,6.09,5.62-2.56,5.62-6.09,5.62S792.22,69.18,792.22,65.91Zm.83,10.93h10.53v36.29H793.05Z"/><path class="cls-2" d="M733.61,95.4c0-11.77,7.42-19,16.34-19,10.12,0,15.7,7.52,15.7,17.43a25,25,0,0,1-.44,4.75H744c.95,5.26,4.48,7.68,9.22,7.68,2.69,0,5-1.07,7.6-2.61l3.56,6.72a22.8,22.8,0,0,1-12.6,4.08C741.22,114.41,733.61,107.42,733.61,95.4Zm23-4c0-4-2.26-6.87-6.47-6.87-3.32,0-5.63,2.28-6.35,6.87Z"/><path class="cls-2" d="M684.25,81.85c2.89-2.89,6.06-5.35,10.84-5.35,5,0,8.09,2.09,9.9,5.93,3.11-3.19,6.44-5.93,11.21-5.93,7.81,0,11.29,5.57,11.29,14.53v22.28H716.35V92.48c0-5-1.38-6.51-4.2-6.51-1.73,0-3.61,1.09-5.78,3.25v24.09H695.16V92.48c0-5-1.3-6.51-4.2-6.51-1.66,0-3.61,1.09-5.78,3.25v24.09H674V77.36h10.21Z"/><path class="cls-2" d="M814.33,110.74a3.32,3.32,0,1,1,3.3,3.44A3.3,3.3,0,0,1,814.33,110.74Z"/><path class="cls-2" d="M836.29,76.39c-4,0-6.15,2.65-6.15,7.46v5.27l-3.33.2v2.15h3.33v22.35h2.57V91.47h5.65V89.1h-5.65V84c0-3.52,1.2-5.3,3.58-5.3a7.51,7.51,0,0,1,2.78.59l.24.09.78-2.06-.21-.1A8.59,8.59,0,0,0,836.29,76.39Z"/><path class="cls-2" d="M854.67,89a5.09,5.09,0,0,0-2.49-.54c-2.56,0-4.94,1.67-6.75,4.7l-.23-4.09H843v24.72h2.57V97.07c1.58-3.85,3.91-6.06,6.41-6.06a5.77,5.77,0,0,1,2,.3l.24.07.68-2.25Z"/><path class="cls-2" d="M772.24,102.2v-40h10.53v40.41c0,2.31,1,3,1.9,3a4.39,4.39,0,0,0,1.29-.15l1.26,7.93a13.34,13.34,0,0,1-5.29.9C774.71,114.36,772.24,109.54,772.24,102.2Z"/></g></svg>